<?xml version="1.0" encoding="UTF-8" standalone="no"?>
<!-- Created with Inkscape (http://www.inkscape.org/) -->

<svg
   width="720"
   height="240"
   viewBox="0 0 720 240"
   version="1.1"
   id="svg5"
   inkscape:version="1.1.2 (0a00cf5339, 2022-02-04)"
   sodipodi:docname="BarberTendenceTextWhite.svg"
   xmlns:inkscape="http://www.inkscape.org/namespaces/inkscape"
   xmlns:sodipodi="http://sodipodi.sourceforge.net/DTD/sodipodi-0.dtd"
   xmlns="http://www.w3.org/2000/svg"
   xmlns:svg="http://www.w3.org/2000/svg">
  <sodipodi:namedview
     id="namedview7"
     pagecolor="#505050"
     bordercolor="#eeeeee"
     borderopacity="1"
     inkscape:pageshadow="0"
     inkscape:pageopacity="0"
     inkscape:pagecheckerboard="0"
     inkscape:document-units="px"
     showgrid="false"
     inkscape:zoom="0.62304687"
     inkscape:cx="464.65204"
     inkscape:cy="77.843261"
     inkscape:window-width="1920"
     inkscape:window-height="1056"
     inkscape:window-x="0"
     inkscape:window-y="0"
     inkscape:window-maximized="1"
     inkscape:current-layer="g5846" />
  <defs
     id="defs2">
    <rect
       x="25.21106"
       y="67.927116"
       width="374.71253"
       height="118.80858"
       id="rect3224" />
    <rect
       x="25.21106"
       y="67.927116"
       width="374.71253"
       height="118.80858"
       id="rect4332" />
  </defs>
  <g
     inkscape:label="Capa 1"
     inkscape:groupmode="layer"
     id="layer1">
    <g
       id="g5846"
       transform="matrix(1.4473126,0,0,1.4473126,-6.7246264,-20.969831)">
      <g
         aria-label="Barber"
         transform="matrix(1.116034,0,0,1.116034,-13.538822,-10.092078)"
         id="text3222"
         style="font-size:40px;line-height:1.25;font-family:'Akira Expanded';-inkscape-font-specification:'Akira Expanded, Normal';white-space:pre;shape-inside:url(#rect3224);fill:#f9f9f9">
        <path
           d="m 35.835937,97.803556 v -3.515625 h 13.769532 c 0.878906,0 1.601562,0.878907 1.601562,1.757813 0,0.878906 -0.722656,1.757812 -1.601562,1.757812 z M 47.691406,84.034025 c 0.878906,0 1.601563,0.878906 1.601563,1.757813 0,0.878906 -0.722657,1.777343 -1.601563,1.777343 H 35.835937 v -3.535156 z m 8.164063,6.445313 c 1.875,-1.191407 3.046875,-3.125 3.046875,-5.644532 0.05859,-4.570312 -3.789063,-7.050781 -8.339844,-7.03125 H 25.601562 v 26.250004 h 26.894532 c 4.511718,0 8.378906,-2.46094 8.320312,-7.050785 0,-3.300781 -1.992187,-5.566406 -4.960937,-6.523437 z"
           id="path828"
           style="fill:#f9f9f9" />
        <path
           d="m 80.777344,85.401213 3.59375,7.753906 H 77.164062 Z M 60.601562,104.05356 H 72.125 l 2.070312,-4.492191 h 13.144532 l 2.070312,4.492191 H 100.93359 L 86.851562,77.803556 H 74.683594 Z"
           id="path830"
           style="fill:#f9f9f9" />
        <path
           d="m 101.71484,77.784025 v 26.250005 h 10.23438 v -6.406255 h 9.14062 l 4.94141,6.406255 h 10.89844 l -5.72266,-7.363286 c 1.71875,-0.800781 3.10547,-2.011719 4.14063,-3.59375 1.05468,-1.601563 1.58203,-3.398438 1.58203,-5.371094 0.0781,-5.429687 -4.51172,-9.980469 -9.92188,-9.921875 z m 22.71485,7.675781 c 1.25,0 2.24609,0.996094 2.24609,2.246094 0,0.605469 -0.21484,1.132813 -0.66406,1.582031 -0.42969,0.429688 -0.95703,0.644532 -1.58203,0.644532 h -12.48047 v -4.472657 z"
           id="path832"
           style="fill:#f9f9f9" />
        <path
           d="m 150.32812,97.803556 v -3.515625 h 13.76954 c 0.8789,0 1.60156,0.878907 1.60156,1.757813 0,0.878906 -0.72266,1.757812 -1.60156,1.757812 z m 11.85547,-13.769531 c 0.87891,0 1.60157,0.878906 1.60157,1.757813 0,0.878906 -0.72266,1.777343 -1.60157,1.777343 h -11.85547 v -3.535156 z m 8.16407,6.445313 c 1.875,-1.191407 3.04687,-3.125 3.04687,-5.644532 0.0586,-4.570312 -3.78906,-7.050781 -8.33984,-7.03125 h -24.96094 v 26.250004 h 26.89453 c 4.51172,0 8.37891,-2.46094 8.32031,-7.050785 0,-3.300781 -1.99218,-5.566406 -4.96093,-6.523437 z"
           id="path834"
           style="fill:#f9f9f9" />
        <path
           d="m 178.04297,104.05356 h 30.72265 V 97.315275 H 188.27734 V 93.9559 h 20.48828 v -6.074219 h -20.48828 v -3.359375 h 20.48828 v -6.71875 h -30.72265 z"
           id="path836"
           style="fill:#f9f9f9" />
        <path
           d="m 214.19531,77.784025 v 26.250005 h 10.23438 v -6.406255 h 9.14062 l 4.94141,6.406255 h 10.89844 l -5.72266,-7.363286 c 1.71875,-0.800781 3.10547,-2.011719 4.14062,-3.59375 1.05469,-1.601563 1.58204,-3.398438 1.58204,-5.371094 0.0781,-5.429687 -4.51172,-9.980469 -9.92188,-9.921875 z m 22.71485,7.675781 c 1.25,0 2.24609,0.996094 2.24609,2.246094 0,0.605469 -0.21484,1.132813 -0.66406,1.582031 -0.42969,0.429688 -0.95703,0.644532 -1.58203,0.644532 h -12.48047 v -4.472657 z"
           id="path838"
           style="fill:#f9f9f9" />
      </g>
      <g
         aria-label="TENDENCE"
         transform="translate(252.13891,1.2701802)"
         id="text4330"
         style="font-size:40px;line-height:1.25;font-family:Raleway;-inkscape-font-specification:'Raleway, @wght=500';font-variation-settings:'wght' 500;white-space:pre;shape-inside:url(#rect4332);fill:#f9f9f9">
        <path
           d="m 49.090937,79.754992 h -9.8 V 104.95499 H 35.690938 V 79.754992 h -9.800001 v -3.2 h 23.2 z"
           id="path841"
           style="fill:#f9f9f9" />
        <path
           d="m 72.45095,101.75499 v 3.2 h -19.28 V 76.554992 h 18.92 v 3.2 h -15.32 v 9.2 h 13.32 v 3 h -13.32 v 9.799998 z"
           id="path843"
           style="fill:#f9f9f9" />
        <path
           d="m 80.970932,83.194992 v 21.759998 h -3.6 V 76.554992 h 3.04 l 17.36,22.2 v -22.16 h 3.599998 v 28.359998 h -3.279998 z"
           id="path845"
           style="fill:#f9f9f9" />
        <path
           d="M 108.17095,104.95499 V 76.554992 h 9.84 q 4.56,0 7.6,1.92 3.08,1.88 4.6,5.12 1.52,3.2 1.52,7.12 0,4.32 -1.68,7.52 -1.68,3.199998 -4.76,4.959998 -3.08,1.76 -7.28,1.76 z m 19.92,-14.239998 q 0,-3.2 -1.2,-5.68 -1.16,-2.48 -3.4,-3.88 -2.24,-1.4 -5.48,-1.4 h -6.24 v 21.999998 h 6.24 q 3.28,0 5.52,-1.44 2.24,-1.479998 3.4,-3.959998 1.16,-2.52 1.16,-5.64 z"
           id="path847"
           style="fill:#f9f9f9" />
        <path
           d="m 156.09093,101.75499 v 3.2 h -19.28 V 76.554992 h 18.92 v 3.2 h -15.32 v 9.2 h 13.32 v 3 h -13.32 v 9.799998 z"
           id="path849"
           style="fill:#f9f9f9" />
        <path
           d="m 164.61092,83.194992 v 21.759998 h -3.6 V 76.554992 h 3.04 l 17.36,22.2 v -22.16 h 3.6 v 28.359998 h -3.28 z"
           id="path851"
           style="fill:#f9f9f9" />
        <path
           d="m 189.97093,90.554992 q 0,-2.6 0.88,-5.08 0.92,-2.52 2.64,-4.56 1.76,-2.08 4.28,-3.28 2.52,-1.24 5.72,-1.24 3.8,0 6.52,1.76 2.72,1.72 4.04,4.44 l -2.84,1.84 q -0.84,-1.8 -2.16,-2.84 -1.28,-1.08 -2.8,-1.52 -1.48,-0.44 -2.92,-0.44 -2.36,0 -4.2,0.96 -1.8,0.96 -3.04,2.56 -1.24,1.6 -1.88,3.6 -0.6,1.96 -0.6,3.96 0,2.2 0.72,4.24 0.76,2.04 2.08,3.6 1.32,1.559998 3.12,2.479998 1.8,0.92 3.92,0.92 1.48,0 3.04,-0.52 1.56,-0.52 2.92,-1.599998 1.36,-1.12 2.16,-2.88 l 3,1.64 q -0.88,2.119998 -2.72,3.599998 -1.84,1.48 -4.12,2.24 -2.24,0.76 -4.44,0.76 -2.92,0 -5.36,-1.24 -2.44,-1.28 -4.24,-3.36 -1.76,-2.119998 -2.76,-4.719998 -0.96,-2.64 -0.96,-5.32 z"
           id="path853"
           style="fill:#f9f9f9" />
        <path
           d="m 238.3709,101.75499 v 3.2 h -19.28 V 76.554992 h 18.92 v 3.2 h -15.32 v 9.2 h 13.32 v 3 h -13.32 v 9.799998 z"
           id="path855"
           style="fill:#f9f9f9" />
      </g>
    </g>
  </g>
</svg>
